# xmcd
#
# Track frame offsets: 
#        150
#        10349
#        21489
#        30053
#        36704
#        48751
#        59067
#        68578
#        74901
#        87221
#        96377
#        104633
#        116582
#        123552
#        133532
#        145227
#        155916
#        162342
#        174800
#        184773
#
# Disc length: 2624 seconds
#
# Revision: 0
# Processed by: cddbd v1.5.2PL0 Copyright (c) Steve Scherf et al.
# Submitted via: ExactAudioCopy v0.99pb3
#
DISCID=250a3e14
DTITLE=Foy Willing and The Riders Of The Purple Sage - Sagebrush Swing
DYEAR=2003
DGENRE=Country
TTITLE0=Introduction-Theme - There's A Rainbow Over The Range
TTITLE1=Among My Souvenirs
TTITLE2=Ragtime Cowboy Joe
TTITLE3=Put On Your Old Grey Bonnet
TTITLE4=Blue Shadows On The Trail
TTITLE5=Out On The Texas Plain
TTITLE6=Molly Darling
TTITLE7=Get Along Home, Cindy
TTITLE8=Tumblin' Tumbleweeds
TTITLE9=You Are My Sunshine
TTITLE10=Timber Trail
TTITLE11=Cowboys Heaven
TTITLE12=Gay Ranchero
TTITLE13=Carry Me Back To The Lone Prairie
TTITLE14=Little White House With You Inside
TTITLE15=Along The Navajo Trail
TTITLE16=Red Wing
TTITLE17=Red River Valley
TTITLE18=Anytime
TTITLE19=Cimarron (Roll On)
EXTD=
EXTT0=
EXTT1=
EXTT2=
EXTT3=
EXTT4=
EXTT5=
EXTT6=
EXTT7=
EXTT8=
EXTT9=
EXTT10=
EXTT11=
EXTT12=
EXTT13=
EXTT14=
EXTT15=
EXTT16=
EXTT17=
EXTT18=
EXTT19=
PLAYORDER=
